<svg width="44" height="45" viewBox="0 0 44 45" fill="none" xmlns="http://www.w3.org/2000/svg">
<rect x="0.75" y="0.75" width="42.5" height="43.1471" rx="6.25" stroke="#393939" stroke-opacity="0.35" stroke-width="0.5"/>
<path d="M22.0046 17.2373C19.2718 17.2373 17.0675 19.5064 17.0675 22.3196C17.0675 25.1328 19.2718 27.4019 22.0046 27.4019C24.7374 27.4019 26.9417 25.1328 26.9417 22.3196C26.9417 19.5064 24.7374 17.2373 22.0046 17.2373ZM22.0046 25.6238C20.2386 25.6238 18.7948 24.142 18.7948 22.3196C18.7948 20.4972 20.2343 19.0154 22.0046 19.0154C23.7749 19.0154 25.2144 20.4972 25.2144 22.3196C25.2144 24.142 23.7706 25.6238 22.0046 25.6238ZM28.2952 17.0294C28.2952 17.6885 27.7796 18.2148 27.1437 18.2148C26.5034 18.2148 25.9921 17.684 25.9921 17.0294C25.9921 16.3748 26.5077 15.844 27.1437 15.844C27.7796 15.844 28.2952 16.3748 28.2952 17.0294ZM31.5651 18.2325C31.4921 16.6446 31.1397 15.238 30.0097 14.0791C28.8839 12.9202 27.5175 12.5575 25.9749 12.4779C24.3851 12.385 19.6198 12.385 18.03 12.4779C16.4917 12.5531 15.1253 12.9158 13.9952 14.0747C12.8651 15.2336 12.5171 16.6402 12.4397 18.2281C12.3495 19.8647 12.3495 24.7701 12.4397 26.4067C12.5128 27.9946 12.8651 29.4012 13.9952 30.5601C15.1253 31.719 16.4874 32.0817 18.03 32.1613C19.6198 32.2542 24.3851 32.2542 25.9749 32.1613C27.5175 32.0862 28.8839 31.7234 30.0097 30.5601C31.1355 29.4012 31.4878 27.9946 31.5651 26.4067C31.6554 24.7701 31.6554 19.8691 31.5651 18.2325ZM29.5112 28.1627C29.1761 29.0297 28.5272 29.6976 27.6808 30.047C26.4132 30.5646 23.4054 30.4451 22.0046 30.4451C20.6038 30.4451 17.5917 30.5601 16.3284 30.047C15.4862 29.702 14.8374 29.0341 14.4979 28.1627C13.9952 26.8579 14.1112 23.7616 14.1112 22.3196C14.1112 20.8776 13.9995 17.7769 14.4979 16.4765C14.8331 15.6095 15.4819 14.9416 16.3284 14.5922C17.596 14.0747 20.6038 14.1941 22.0046 14.1941C23.4054 14.1941 26.4175 14.0791 27.6808 14.5922C28.523 14.9372 29.1718 15.6051 29.5112 16.4765C30.014 17.7814 29.8979 20.8776 29.8979 22.3196C29.8979 23.7616 30.014 26.8623 29.5112 28.1627Z" fill="#393939"/>
</svg>
